<?xml version="1.0" standalone="no"?>
<!DOCTYPE svg PUBLIC "-//W3C//DTD SVG 20010904//EN"
 "http://www.w3.org/TR/2001/REC-SVG-20010904/DTD/svg10.dtd">
<svg version="1.0" xmlns="http://www.w3.org/2000/svg"
 width="1136.000000pt" height="288.000000pt" viewBox="0 0 1136.000000 288.000000"
 preserveAspectRatio="xMidYMid meet">

<g transform="translate(0.000000,288.000000) scale(0.100000,-0.100000)"
fill="#000000" stroke="none">
<path d="M1224 2248 c-14 -47 -15 -63 -6 -66 7 -2 39 -22 71 -43 76 -51 159
-141 212 -229 l42 -71 -18 -57 c-10 -31 -20 -60 -22 -65 -2 -4 -27 28 -55 70
-93 142 -264 288 -406 345 -47 18 -76 22 -167 23 -105 0 -114 -2 -177 -33
-107 -52 -158 -142 -158 -278 0 -161 76 -278 270 -417 47 -33 99 -71 117 -84
l32 -23 -34 -52 c-43 -64 -59 -133 -53 -229 4 -89 33 -154 94 -216 73 -72 114
-88 229 -88 91 0 104 2 146 27 63 37 133 117 169 194 49 102 70 202 80 384 5
91 13 183 16 204 7 37 8 38 16 16 5 -13 13 -101 18 -195 5 -93 16 -204 25
-245 27 -118 84 -231 152 -299 70 -69 124 -91 228 -91 157 0 285 112 314 276
15 79 1 149 -46 241 -20 40 -35 74 -32 76 2 2 45 30 94 62 122 78 232 190 276
280 32 66 34 75 34 180 0 104 -2 113 -30 164 -35 64 -97 113 -173 137 -73 23
-215 15 -295 -15 -159 -62 -336 -224 -443 -407 -9 -16 -14 -9 -32 45 l-21 63
21 42 c56 113 160 226 256 282 26 15 49 28 51 30 8 7 -32 124 -42 124 -5 0
-36 -14 -70 -32 -72 -39 -199 -156 -252 -233 -21 -30 -39 -55 -40 -55 -1 0
-18 25 -38 55 -43 64 -128 151 -189 193 -47 32 -122 72 -136 72 -5 0 -17 -28
-28 -62z m-242 -242 c36 -13 93 -42 126 -65 82 -58 97 -94 97 -231 0 -124 -17
-171 -90 -249 l-46 -50 -87 61 c-251 176 -305 242 -305 373 0 93 35 145 115
170 63 20 115 18 190 -9z m1454 9 c143 -42 164 -208 45 -364 -38 -50 -157
-142 -269 -207 -53 -31 -132 -78 -176 -103 -90 -53 -153 -118 -193 -199 l-27
-56 -15 44 c-10 31 -15 89 -15 185 0 125 3 149 27 220 40 120 91 199 197 305
158 158 294 214 426 175z m-1001 -540 c52 -246 -30 -533 -170 -596 -51 -23
-89 -23 -140 0 -83 37 -133 129 -121 220 9 67 47 122 136 196 117 98 175 192
201 325 l13 65 33 -70 c18 -39 40 -102 48 -140z m759 -296 c44 -87 46 -135 11
-206 -44 -87 -136 -131 -219 -103 -30 9 -37 18 -47 52 -19 74 18 173 93 245
40 38 104 83 120 83 4 0 23 -32 42 -71z"/>
<path d="M3464 1982 c-67 -23 -129 -70 -171 -129 -61 -86 -63 -101 -63 -570
l0 -423 438 2 437 3 3 88 3 87 -356 0 -355 0 0 150 0 150 353 2 352 3 3 87 3
88 -353 2 -353 3 -3 62 c-2 34 2 81 8 105 15 53 73 112 125 127 25 7 143 11
308 11 l267 0 0 85 0 85 -297 0 c-258 -1 -305 -3 -349 -18z"/>
<path d="M6602 1433 l3 -568 88 -3 87 -3 0 239 c0 274 5 301 73 370 51 52 125
78 193 67 60 -9 133 -60 164 -115 24 -44 25 -51 30 -300 l5 -255 88 -3 87 -3
0 240 c0 137 -5 263 -11 293 -25 121 -111 228 -227 285 -47 23 -73 28 -152 31
-98 4 -110 2 -237 -55 -10 -4 -13 34 -13 171 l0 176 -90 0 -90 0 2 -567z"/>
<path d="M7658 1888 l-3 -113 -97 -3 -98 -3 0 -84 0 -84 98 -3 97 -3 5 -270 5
-270 27 -46 c52 -88 131 -135 243 -146 l65 -6 0 92 0 91 -40 0 c-53 0 -96 23
-115 60 -13 25 -15 69 -13 262 l3 233 98 3 97 3 0 84 0 85 -100 0 -100 0 0
115 0 115 -85 0 -84 0 -3 -112z"/>
<path d="M8765 1942 l-21 -58 68 -32 c40 -19 95 -58 133 -93 l65 -61 61 56
c33 31 93 73 132 93 40 19 73 36 74 37 1 1 -7 28 -19 59 -18 50 -24 57 -42 51
-36 -11 -119 -55 -162 -86 l-41 -29 -69 44 c-61 40 -135 77 -153 77 -3 0 -15
-26 -26 -58z"/>
<path d="M10002 1433 l3 -568 87 -3 87 -3 3 258 c3 287 4 289 75 357 108 106
286 74 356 -63 l27 -55 0 -248 0 -248 90 0 90 0 0 240 c0 136 -5 262 -11 292
-25 121 -111 228 -227 285 -52 26 -66 28 -172 28 -106 0 -119 -2 -168 -27 -30
-16 -56 -28 -58 -28 -2 0 -4 79 -4 175 l0 175 -90 0 -90 0 2 -567z"/>
<path d="M8431 1754 c-164 -44 -312 -201 -328 -348 -8 -63 25 -128 81 -161
l43 -25 301 0 c166 0 302 -2 302 -5 0 -19 -44 -86 -77 -117 -113 -109 -290
-108 -399 3 -21 21 -41 39 -45 39 -15 0 -139 -82 -139 -92 0 -22 64 -89 121
-127 255 -170 598 -62 701 222 l22 60 12 -34 c45 -132 130 -229 251 -287 76
-36 81 -37 193 -37 135 0 193 19 287 90 54 41 112 110 101 120 -11 11 -129 85
-136 85 -5 0 -25 -18 -46 -39 -111 -114 -294 -113 -409 2 -57 57 -81 117 -80
202 0 85 19 130 79 195 115 122 307 123 417 1 l35 -39 71 45 c39 25 71 49 71
54 0 6 -22 34 -49 62 -100 106 -222 154 -366 144 -188 -12 -336 -120 -409
-301 l-24 -58 -16 48 c-33 97 -120 200 -216 257 -93 54 -237 71 -349 41z m247
-188 c47 -24 93 -67 124 -115 15 -25 28 -49 28 -53 0 -4 -124 -8 -275 -8 -151
0 -275 2 -275 5 0 4 7 20 16 38 23 46 82 105 128 129 73 38 185 40 254 4z"/>
<path d="M4270 1285 l0 -425 85 0 85 0 0 263 c0 146 5 278 10 299 15 52 77
105 134 113 37 6 55 3 93 -16 88 -45 87 -40 93 -367 l5 -287 88 -3 87 -3 0
270 c0 166 4 280 11 298 23 61 95 113 156 113 44 -1 108 -34 134 -71 24 -34
24 -38 29 -319 l5 -285 88 -3 88 -3 -3 303 c-3 299 -3 304 -28 353 -36 74
-114 148 -183 173 -88 33 -194 31 -272 -7 -33 -15 -71 -40 -84 -54 l-23 -26
-49 39 c-70 55 -133 73 -233 68 -49 -3 -94 -11 -113 -21 -32 -17 -33 -17 -33
3 0 18 -6 20 -85 20 l-85 0 0 -425z"/>
<path d="M5620 1125 l0 -585 85 0 85 0 0 160 0 160 133 0 c220 0 314 29 414
127 209 203 149 561 -115 686 -63 30 -73 32 -182 32 -108 0 -119 -2 -175 -30
-33 -16 -63 -31 -67 -33 -5 -2 -8 12 -8 32 l0 36 -85 0 -85 0 0 -585z m528
386 c90 -46 136 -120 137 -221 0 -53 -6 -75 -29 -118 -59 -107 -121 -132 -323
-132 l-145 0 4 153 c5 169 15 207 71 265 77 81 189 102 285 53z"/>
</g>
</svg>
